# xmcd CD database file
#
# Track frame offsets:
#	150
#	32665
#	64185
#	90802
#	117812
#	144220
#	173922
#	205695
#	223022
#
# Disc length: 3498 seconds
#
# Revision: 0
# Processed by: cddbd v1.4PL0 Copyright (c) Steve Scherf et al.
# Submitted via: CDex 1.50Beta5
#
DISCID=710da809
DTITLE=Mal Waldron - No More Tears (For Lady Day)
DYEAR=1988
DGENRE=Jazz
TTITLE0=Yesterdays
TTITLE1=No More Tears
TTITLE2=Melancholy Waltz
TTITLE3=Solitude
TTITLE4=Love Me Or Leave Me
TTITLE5=All Night Through  
TTITLE6=As Time Goes By
TTITLE7=Smoke Gets In Your Eyes
TTITLE8=Alone Together 
EXTD=YEAR: 1988
EXTT0=
EXTT1=
EXTT2=
EXTT3=
EXTT4=
EXTT5=
EXTT6=
EXTT7=
EXTT8=
PLAYORDER=
